/* XPM */
static char *d27f8816e2a4478cefaa327524762aefIN2YL1yuxctcwaF7[] = {
/* columns rows colors chars-per-pixel */
"64 64 52 1 ",
"  c #10100F",
". c #1E180B",
"X c #121211",
"o c #161515",
"O c #181817",
"+ c #1A1A19",
"@ c #1C1C1B",
"# c #1E1D1D",
"$ c #1F1E1D",
"% c #221A0D",
"& c #221A0E",
"* c #261D0D",
"= c #261D0E",
"- c #2B1F0F",
"; c #2C1F0F",
": c #2C200F",
"> c #302111",
", c #302211",
"< c #372513",
"1 c #382513",
"2 c #3B2715",
"3 c #222121",
"4 c #222221",
"5 c #262525",
"6 c #282727",
"7 c #292827",
"8 c gray17",
"9 c #2C2B2B",
"0 c #2C2C2B",
"q c #2C2C2C",
"w c #302F2E",
"e c #302F2F",
"r c #31302F",
"t c #333332",
"y c gray20",
"u c #343333",
"i c #343433",
"p c #343434",
"a c #393838",
"s c #3A3938",
"d c #3A3939",
"f c #3B3A39",
"g c #3B3A3A",
"h c #3F3F3E",
"j c #412917",
"k c #403F3E",
"l c #41403F",
"z c #474646",
"x c #474746",
"c c #4D4C4C",
"v c #4E4D4C",
"b c #555453",
/* pixels */
"kkk=;,,2,,,,,,,,,,,>,,;&=,,,,;;=9ykksgago+OOOOO5is0iq06766qrrpsz",
"hss9=;,2>>,,>,>;>>>>>>;&=,,,;*=9yhkahshh5+OOOO5ia0i06600wupuipya",
"sssy9=-<>>,>>>>>-->>>>;%=>;;*59yy5,>>>5yy5OOO5ya9y96qwyyuyuuuuyy",
"8shsy8*<>>>>>>>>-->>>>*%=;==9yh5,,**&=&=tt555ya8yyyuyye996666666",
"5qsahy=<>>>>>>>>>>>>>-*%==9yhh5>**=*%*%=5httia8ywwweeeeeeeeewwww",
"668saa=->>>>>;>>>>>>-%%*9yhhy>>*****&*%%.tzba0r86666666666666666",
"6668ah8=->>>>>>>>>>-%%59yhh5>******=%%*..tbh8t866666566666666666",
"66668ah8*->>>>>>>--%*8yyhy>>********%%*..tcht8666666666666666666",
"666658hy8*;>>>>;-%%8yyhh5,;******%**%.*..ycy86666566666666656666",
"666655hhy9*;;;;%%8yhhhy>,-*=*=***%**%.%..yzy86665666666666666666",
"666655hahy9%%%%58yhhy5>;-*===*=******.%.4uzyw6566656666666666666",
"666655sshhy99998yhhy>>;***;=====*.***...6ahyw6665666666556666665",
"66665#ssy999uacczsy,;;=--**=*=***.==*...8azy86666666666556555566",
"6665#yhy09995yvzzy,=;;=;;****====.==*...yahu86666666666666555566",
"665#yks9990055szh>;=,=======*=**=.*==..3yhhi86666666666666555566",
"65#ykky00090555u9>=>;===========&.===..6akhr86666666666666555565",
"5#ukksuq00994695u,=,**-*======**%.**%..9hhh86666666666666666665#",
"#uu55us00996499uy>=;**=*========..**%..y<,y8666666665666666665#3",
"ui5::5uu99944999a,;;======*=====.%*%.%w<,,9y36666666666666653#33",
"p5:,=:5k59443999uy;;====*=*=**=%.%..%y<,>>*ur3566666666653#@@#3y",
"5:,===%ya54949995k5;=*==*==*=*%....6yh*=*=*aau4435555533###3#8yy",
":,====%5hu5949995ay%*==**=****....6yhhhyyruzziy4#@@@@@@@#33#8yh5",
",=====&&ya594999#yh5==***==**...3wy9998888kzccar8#33333344#9yh5-",
"===;==&=yhy53896#yhy%*******..48yy853@34448hcczhy8#33333#@0rh5-,",
"======%=5hhy4865#yhh5.%***%..8rhy8533##43338hzzaht8######8yhy-,*",
"======%=%yha#555#aahy.......3yku85333@5@34@3aha88ht8####8ylr5,**",
"=;;===.*%8aht###ahhhh5....36wh8853553#3@44#5yay558ht8888yhy5-***",
"=;;===.*%5hzaiiah8<<8y556wwhh88533553@33#4#8ya85558hhhzzha5-****",
"===-**.*%5hazaar<<>>>>yyyaha885333333@33##O0tt55555tlzzhar-*****",
"==*=*%.*%5haaaa<>,>>>>-hhaa8853335333@33##5ia8855558raatr8-**---",
"=*=**%%*%8azaaay>>>>>>*hah88833333333@33##8ahhttttttyhaw9w-**---",
"==***.%%%8hhy8yhh>>>-**hh885833333333@33#Ot8222222222*,2wy-**---",
"****%.*%5tlr8w8yhh-:*=th8855853333333O33#8a<<<>>>>>>>*>>>h-*****",
"****%.%5ttt8w888yhht88ht853585333333#@3#O9t<,<>>>>>>>*>>-y;**-**",
"****.%5tth8w88888yhzhzh8533585333333@@3#+u8j,<,>->>>>*>>-r;*****",
"***%.5ttat8w888888thzzz8333586333333@O3@ra5j,<>>>>>>>*>>-y%=****",
"***.5tthh8r88888888rzcc8333586333333@+#5aa<j><>>>>>>>*>>:i5%****",
"**%5ttaht8w888888888tcct333586533333++@9hy<j><>>>>>>>->>-ir5%***",
"=%5ttaht8w88w88888588tza#33586533333+++uh8<j>>>>>>>>-->>-yhy5%**",
"%5tthhat88888888888588zz8##585633333++5aa<>j><>>>>>>->>>=rhhy5%%",
"5tyzzht88888w888888388taa+##84633333++8hy<>j<>>>>>>>->>>*ihhht55",
"ttcczt888888w8888883588tt5+#O4733333++8h8<>j2>>>>>>->>>>*tOO#8tt",
"thvvs8880wr8888w88853888t85++#55333@+5ya<>>2j>>>>>>->>>>*tOOOO#8",
"O5zxy888rr08888888853888858t8#+5333#+8ah<>><j>>>>>->>>>>*tOOOO O",
"+X5h8898www888888585358885tt0++##33#+ukk->>>2>>>>>>>>->>*iOOOOXO",
"oX5s9998ww888888888535885#tzz0O#@33@5aaay->><<>>>>>>,,>>*iOOOOXO",
"X5yy9998888w888885853585#5hzzh8O@@#+9kaahu->><>>>>>-;,::*tOOOXOO",
"5yyy599er88888888585#55#58h5=5h8@+++aky@@uy--><>>>>-;,:*5tOOOXOO",
"pssst5qww88898898585@3#58r5:*%5ht88tli#OO#iay;,:>>>>,:*5yr XXXXX",
"kkssht55898888888583@@58y5;=*%*%5hhht#OOOO#iai::>>>>:*5yalh55555",
"hahzzzy5588888885594@59y5-***%*%*5hh5#OOOOO#yaa8---*=5y888888tlh",
"h8<29zzy5#888888555@59y5-****%*%*%ht#oOOOooO#rha8-*55ry8888885th",
"2<>>119hy5#5888555#58y5-*****%*%*%h#OOoOOooOO#iha855yh88868885th",
",:>>>>1<8y5#5855#@5u55-****%*%*%%5t#OOOXoOOOOO#thayyzr66888875th",
",;>>>>>><=y5#55#58y5->;******%%%5t#OOOOOXXOoOOO$ykazz866888865t<",
">>>>>>>;,*,,5##58y5->-*****%*%%%8##OOOOOoX oOOOO@uhzi988888655t<",
">>-->>>->*>>-558r5:-::*****%*%%5t#OOooOOOo  OOOOO#yh8888888558<:",
">>-->>>->*-**88y5-=-,=*****%*%5t5#OOoooOOoo  oOOOO#ih88888565t2,",
">>>>>>-*-%**9ry5-**-,*;****%%%8t##OOooOoOO oo OOOOO#yr8886558<:,",
">>>>>>-**%*8khh5***-,******%%5t#O#OOOOOOOOo  o OOOOO#i66656582,,",
">>>>>>-*%%8hhhh8***-:******%5t5#O#OOOOOOOOo o o oOOOOXu65885<,>>",
">>>>>>*%%8h838hy5**-,******%8t#OO#OOOOooOOOo  oo oOOOX9y886y<;>>",
">>>>>-*%8h83348h8**-,-****%5t#OOO#OOOOooOOOo  oO  oOOX8h66u<>>>>",
">>>>-%%8hh333448y**-*****%58tOOOO#OOoOOOOOOoo  OOo oO 8hhyu1>>>>"
};
