/* XPM */
static char *faabea31a7b548afb7f34c3db6b69059uwHalvQud4D4n2Y7[] = {
/* columns rows colors chars-per-pixel */
"64 64 30 1 ",
"  c #746C5B",
". c #7A6F5E",
"X c #7F735D",
"o c #7F745E",
"O c gray38",
"+ c gray39",
"@ c DimGray",
"# c #6C6C6C",
"$ c #6F6F6F",
"% c #717171",
"& c #747474",
"* c gray48",
"= c gray50",
"- c #877660",
"; c #887761",
": c #8D7A63",
"> c #987F66",
", c #9E8269",
"< c #A6856C",
"1 c gray51",
"2 c #888888",
"3 c #8D8D8D",
"4 c #929292",
"5 c #939393",
"6 c #9B9B9B",
"7 c gray64",
"8 c #A4A4A4",
"9 c #AFAFAF",
"0 c #B7B7B7",
"q c gray76",
/* pixels */
"777X-::,::::::::::::::;.o::::;;o25886666#######=5625221111233567",
"7662o;:,:::::::;::::::;.o:::;oo258868688=#####=56252112235555556",
"66652o;>::::::::;;::::;.o:;;o=255=::::=55=###=562521235555555555",
"268652o>::::::::;;::::o.o;oo258=::oo.o.o55===5625555553221111111",
"126685o>:::::::::::::;o.oo2588=:oooo.o.o=85556253333333333333333",
"112666o;:::::;::::::;..o25885::ooooo.o.. 59q62521111111111111111",
"1112682o;::::::::::;..=2588=:ooooooo..o  5q825211111=11111111111",
"11112682o;:::::::;;.o25585::oooooooo..o  50852111111111111111111",
"1111=2852o;::::;;..25588=:;oooooo.oo. o  50521111=111111111=1111",
"1111==8852o;;;;..258885::;ooooooo.oo. .  5952111=111111111111111",
"1111==86852....=25885=:;;oooooooooooo . *59531=111=1111111111111",
"1111==66885222225885::;ooo;oooooo ooo   16853111=111111==111111=",
"1111=&6652225600965:;;o;;oooooooo ooo   269521111111111==1====11",
"111=&5852222=50995:o;;o;;oooooooo ooo   568521111111111111====11",
"11=&58622222==698:;o:oooooooooooo ooo  *588521111111111111====11",
"1=&588522222===52:o:;ooooooooooo. ooo  1688521111111111111====1=",
"=&5886522222*12=5:o:oo;ooooooooo. oo.  28882111111111111111111=&",
"&55==5622221*2255:o;oooooooooooo  oo.  5>:5211111111=11111111=&*",
"55=;;=55222**2226:;;oooooooooooo .o. .3>::25*11111111111111=*&**",
"5=;:o;=8=2***22255;;ooooooooooo. .  .5>:::o55*=111111111=*&%%&*5",
"=;:ooo.56=*2*222=8=;oooooooooo.    158ooooo665***=====**&%&*&255",
";:oooo.=85=2*222=65.oooooooooo    1588855559955*&%%%%%%%&**&258=",
":ooooo..56=2*222&58=ooooooooo   *3522222228900652&********&258=;",
"ooo;oo.o585=*221&585.ooooooo  *2552=*&****28009852&*****&&258=;:",
"oooooo.o=885*21=&588= .ooo.  25852=**&&****28996852&&&&&&2585;:o",
"oooooo.o.586&===&6685       *5852=***&*&**&*68622852&&&&2585=:oo",
"o;;ooo o.2685&&&68888=    *13822=*==*&*&**&=565==2852222585=;ooo",
"o;;ooo o.=89655682>>25==1338822=**==*&**&*%2562===28889986=;oooo",
"ooo;oo o.=869665>>::::55568622=******%**&&#255=====5899865;ooooo",
"ooooo. o.=86666>::::::;886622=***=***%**&&=5622====2566532;oo;;;",
"ooooo..o.2696665::::::o868222********%**&%2688555555586323;oo;;;",
"ooooo ...28852588:::;oo8822=2********%**&#52,,,,,,,,,o:,35;oo;;;",
"oooo. o.=585232588;;oo5822==2=*******#**%26>>>:::::::o:::8;ooooo",
"oooo. .=55523222588522852=*=2=******&#*&#25>:>:::::::o::;5;oo;oo",
"oooo .=55823222225898982=**=2=******&#*&#52<:>::;::::o::;5;ooooo",
"ooo. =556523222222589992***=21******%%*%56=<:>:::::::o::;5.ooooo",
"ooo =5588232222222259002***=21******%#&166><:>:::::::o::;5=.oooo",
"oo.=55685232222222225005***=21=*****##%285><:>:::::::;::;55=.ooo",
"o.=556852322322222=22596&**=21=*****###582><::::::::;;::;585=.oo",
".=55886522222222222=22992&&=2=1*****##=66>:<:>::::::;:::o5885=..",
"=559985222223222222*22566#&&2*1*****##285>:<>:::::::;:::o58885==",
"5500952222223222222*=2255=#%#*1*****##282>:<,::::::;::::o5##&255",
"5800622223322223222=*22252=##&==***&#=56>::,<::::::;::::o5####&2",
"#=99522233322222222=*2222=252%%=***&#268>::><:::::;:::::o5####+#",
"#+=82222333222222=2=*=222=552#%%&**&#588;:::,::::::::;::o5####+#",
"#+=6222233222222222=*=22=&5992#%%**%=6665;::>>::::::::::o5####+#",
"+=552222222322222=2=*=2=&=89982#%&&#286685;::>:::::;;::;o5###+##",
"=555=223322222222=2=%==&=28=o=82####685&&55;;:>::::;;:;o=5###+##",
"56665=23322222222=2=%*&=25=;o.=8522585&##&565;:::::::;o=55++++++",
"886685==222222222=2*%&=25=;oo.o.=8885&####&565;;::::;o=5688=====",
"8689995==2222222==2*%=25=;ooo.o.o188=&#####&5662;;;oo=5222222588",
"82>>2995=&222222===%=25=;oooo.o.o.85&@###@@#&5862;o==55222222=58",
">>::>>285=&=222===&=25=;ooooo.o.o.8&##@##@@##&5862==582221222=58",
"::::::>>25=&=2==&&=5==;oooo.o.o..=5&###+@#####&58655951122221=58",
":;::::::>o5=&==&=25=;:;oooooo...=5&#####++#@###&5869921122221=5>",
":::::::;:o::=&&=25=;:;ooooo.o...2&&#####@++@####&58952222221==5>",
"::;;:::;:o::;==25=;;:;ooooo.o..=5&##@@###@++@####&582222222==2>:",
"::;;:::;:o;oo225=;o;:oooooo.o.=5=&##@@@##@+++@####&5822222=1=5>:",
"::::::;o;.oo255=;oo;:o;oooo...25&&##@@#@##++++@####&552221==2>::",
"::::::;oo.o2888=ooo;:oooooo..=5&#&########@++@+@####&5111=1=2>::",
"::::::;o..288882ooo;:oooooo.=5=&#&########@+++@+@####+51=22=>:::",
"::::::o..282*285=oo;:oooooo.25&##&####@@###@++@@+@###+252215>:::",
":::::;o.282***282oo;:ooooo.=5&###&####@@###@+++#++@##+28115>::::",
"::::;..288*****25oo;ooooo.=25####&##@######@+++#@++@#+28855>::::"
};
