/* XPM */
static char *c29e6b58a0814b98b7288499cc5f9e13ccbhkmMf0GZr6eZb[] = {
/* columns rows colors chars-per-pixel */
"64 64 20 1 ",
"  c #191309",
". c #1C150B",
"X c #1C001C",
"o c #191919",
"O c #20190B",
"+ c #251A0C",
"@ c #281C0E",
"# c #2F2010",
"$ c #332112",
"% c #382313",
"& c #200020",
"* c #230023",
"= c #270027",
"- c #2F0031",
"; c #3A003A",
": c #202020",
"> c #252525",
", c #2C2C2C",
"< c #450045",
"1 c #4F004F",
/* pixels */
"---XXXXX=-;=-XXXXXXX------=XXXXXXXXX=-;;-==XXXXXXXXXXXXX========",
"@;;-XXX=-;--==XXXXX-;<###@-=XXXXXX*=-;;;;-;-XXXXXXXXX===-;;#####",
"#@;;;-X=--=---=XX*=;<##@@@@==*XX**=*-;;;-;--=XXXXXXX===-;;######",
"@@@;-=====--==X***=;<#@;--@-=***==*=-;-;--===********==-;####++=",
";@O-;-======*****==-;;-=-;#-*=@@@;-==-;-==@@#@@@++OO***-;###.=+-",
";@O;;--=--;;;;;--===-;-;;-+*=@###@;-==-OO@#####@@@O@O**-;-#@.-+;",
"-;@-;-;-;;;;#--;;--==-=;--.=@##++@;-=.O##$###@++.+..@O*=-;#@.;+-",
";;@;---;@$;#@-=---;-====-=O=#@+==+-=.+#$$$$$#O+OX+==@.O*=;#@.;+=",
"-;@-=-;@$$#@+-====--=-==--@-@@=;-O;-.#$$%%$$#OXO=+--+=O**-@+.-+*",
"=-@=-;;$$#@@+-==-=====----+=@@-;;.-.#+O%%$$#@.=.=+;;+-O=*=@+.;+*",
"==.--;<$#@@+O-=--@@@+O===-O*O=;--.*.+#-%$##@+.===;;++-O.=*=+.-=*",
"==.-;;<$@@OOO-=-@####@-====*O-;=-.*.+O-%##@+++.;=;++++O.-=*+.*=*",
"==.-;<<-@O.-.=-=##@-@#;-=***.******=+O;##@+=-++.;;+OO+O.--=+.***",
"==.-<;###@.*.**@#@--;@;-*XX***=***=*+O;#@+=-;-+.@#O..;O.-;=*****",
"===-;##@---- **@#@=;-@;-****==-;;-**OO;#=+-;;;#@#+.---O.-;-=****",
"===-;#@-;<<; X*@#@=;=+-=*=OOO=----**O=;#;+=O+###+.-;-=-O.--*****",
"===-;#-;<;-- X*#;+=-=O***@##@@O=-=**O=;#;+O######+.--=;OO.-*****",
"===--#-<;==X X*#;O=-=.*=#%%%%#@==-**.-;=;+####++++.-;---O..****=",
"===--#-<=-;= **;;-;-=**;%#@@@@#+==**.--==+##++ + +.--==;-.*X***=",
"====--;-=;-= *=-;;-=**=;@-1<;<@+O.=*.-;=++#+O =+=+ -=-=;-.***==-",
"---==-;==--;-=-;--=**=;#11<;;+;++O==.--==+#+ =-=-+ -=-=--O**----",
"#;;-=--=-==-;-===***-;#$;<;#++.+...=O-===+;+ --== ==-=*-=O=-;$$#",
"##@;-====-;==XX*==--;#$####@.=-.=..O+O==-+;O ===--=-=***O+;;$$##",
"@@#O-==-;;;-=XX@@.=-;#$-;#++=-;=..+@#@==--;.-====;-==**XO@##$$##",
"@++O-;--;;;-*X+@+O=-;#$-;#+.=;=..OOO+++---;.;--;;-;-*X**@#$$;;;@",
"==O..--;;;-=X*#-=O=-;#$##+..-;+OO..++O++.;---;;--=-XX*=-#$$<;---",
"===OO-=---=O###=-..-;##-==--;;+O.O==-++O..-;--;-=**XX*-;$$<<;=-=",
";;;++=;-==O++@===.*-;;#-=-###+..O++;<+-+O..-==-=*****=;$#$$$$#==",
"=--@@=-=**O--@--;-*=-;#;<<<<<+.--O+;;+-++O.=**=*@@@==-;#$@@@$$#-",
"=-;#@;=****=-O;;-=**=;;<<<;;;+.=<;.=-+-++O.=***@@@==-;<#@;11@##;",
"-;-@@-=-===--.OOO.**=;;<<;;-@+.-;;.==+=++O.-=O*@@;;;;;<#;1;;<<#@",
"-;-++;-;-=-;<<;;-+..-;<;@##+.+-<--.=---++O.-=**@;;;--;<#;1--<<@@",
"=;-OO;=-==;11<@@@;O*;;;@#@+O+-<;-;=-;;;++O.-=**O-;;-=;;#;<-=;;++",
"=-;++---=-<1<@@@@@-=;;;#@.*O+.<;=---;;;++O.-=**O---=-;;#;<-=-OOO",
"=-;#@-;;=;<<@@OO-O;=;;-#O*==O.;-*=-;;-=+.O.-=**O==-==-;@-;-*-OOO",
";=;@O-;-=;;<-@OO;O-=;;=O*=-=O.-=*=-;;-=+.=-=***O*==*==-@-;-=**++",
"==;OO--==-;;-OOO-O==-;-O*--=..**===-;==+.=-=*==O******=+=---==@@",
"==-O-==**-;;;OOO=O**=--@X==*..**-==;==--.-;----O***==**+X=----##",
"==;-=****=--;-O=*O***==OX-=*..*==*==--=-.=--;;;O*=----=+*X*==*##",
"==-===****=--=O=*******.*==;-.X**==-;;=-=.=-;;-O=-;;;;-==*XXXX@@",
"===----=-=*=-;;;;-*=**=.X**-= X**=-;;-===.=;-==OO@@;;;;--=**XX+O",
"==-;##;-;-=-;;;;;;;=-== X**** X*==-;-==-=*=*=;O@@##@@;--;-=**XOO",
"*=-#@@+--=--;;##++--;-* *****.X=--==***=***==-;@#@+=+-;-;;-=**..",
"*=;@--+==-;;;###++==-=*.*****O*====-==*****=-;<##+OXO-;;;-;-=*. ",
"*=;+-;+;-;;###@@+O===*XO=++++@;;===---==***=-;<+;O=X==-;-=-=-= X",
"*=-+-=+--;;@;#==+.=-=*XO+##@@#<<;==-;;--===-;#<+;OXX=-;;-==-;- X",
"*==O-;;-;;-+=;*==.-;-**+#%$#@#;1<#O-;;-;-=-;##;O-=X==O@<;---;- X",
"**=O-;;-;;-=;=*-;<.;-**@%$$###-<;@#O;-;--=-###;O-==OO@#$;-;---==",
"***.---=-;-==*--<-.-===#$##@###;<;@@-;-;--######=OO@@#$@--;--;-.",
"***.*====-===-=--.-;-=##@+#+@###;<;@O----;##@@@@#;;$$$@O==---;-.",
"*X* ****==--*=**X.=-==;#+@@O+@@@-;;@O*==-##@@***=--@O=@O=-;;-;-.",
"XXX *X****===--**.*=O####@O@++OO@#;@O**==#@-+*==-;;@O-@O-;;-=-==",
"*XXXX***=======**. O#++O@O@@OOOOO@@@@O**=+;-O=O@@O.@;;-O;;+@O==.",
"*XX **==--;;;;;-=.O#++. OO@OO*==--++@@O.=O-;O-@++O.@;--O-+@@@O=.",
"*X***=-;;;#####;-=O@+.* .*OO.=;--=OOOO+O*.=-O;-O*O.@-==.;--++O**",
"XX***-;<<@#++++#;=O@.** .*OO.-;;;;..  +O*.*=.;-O*..==-=.-=-OOO**",
"X***=-;<<#=---++-=O@.***.**=.=-;;; . *O.==**.--.*OO==;=.===OOO**",
"****=-;<=+-;-;-+-= ;;==;.=;=.=-;--  **. *=**.**.*++.===.=-==@++=",
"****=-;++.++;-;O-- =;;==.===.-=-=** *-. *-**.=**=@-@.==.-==@%##+",
"****+###-;-----O-; =====.....--===* -=. ***=.--=;+;-..=.==@%#@@;",
".**-##@@#--;;......==;=.OOOOOO..... .=. *-=-;;;-=.........#%@-..",
"...;#*-;+;=-.OOOOOOOO...@;@@@@+++OOO... -;--;;;OOO++++@@@#%@O;-.",
"....@-;=O...O@@##@@@OOOOO@#$%$##@@@@@++O.OO....OOO+@######@O....",
",:o...............o:,,>o...................o:>>:o............o:,"
};
